<svg width="147" height="32" viewBox="0 0 147 32" fill="none" xmlns="http://www.w3.org/2000/svg">
<g clip-path="url(#clip0_1_7349)">
<path d="M39.2809 15.5127C39.2809 11.3985 37.6465 7.45275 34.7373 4.54356C31.8281 1.63437 27.8824 5.39515e-07 23.7682 0C19.654 -5.39514e-07 15.7083 1.63437 12.7991 4.54356C9.88986 7.45275 8.25549 11.3985 8.25549 15.5127H13.1033C14.7097 15.5127 15.9625 14.1665 16.5509 12.6717C16.9372 11.6903 17.5234 10.7884 18.2836 10.0281C19.7382 8.57352 21.7111 7.75634 23.7682 7.75634C25.8253 7.75634 27.7982 8.57352 29.2528 10.0281C30.7074 11.4827 31.5245 13.4556 31.5245 15.5127H39.2809Z" fill="url(#paint0_linear_1_7349)"/>
<path d="M30.3445 21.4501C31.1241 19.568 31.5254 17.5508 31.5254 15.5137H39.2809C39.2809 24.0811 32.3356 31.0263 23.7682 31.0263C22.4265 31.0263 21.1245 30.856 19.8829 30.5358C20.5854 30.3548 21.2759 30.1243 21.9491 29.8455C23.8312 29.0659 25.5413 27.9233 26.9818 26.4828C28.4223 25.0423 29.565 23.3322 30.3445 21.4501Z" fill="#4392F9"/>
<path d="M0.5 15.5117C0.5 17.5489 0.901247 19.5661 1.68083 21.4482C2.46042 23.3303 3.60307 25.0404 5.04356 26.4809C6.48404 27.9213 8.19415 29.064 10.0762 29.8436C11.9583 30.6232 13.9755 31.0244 16.0127 31.0244C18.0498 31.0244 20.067 30.6232 21.9491 29.8436C23.8312 29.064 25.5413 27.9213 26.9818 26.4809C28.4223 25.0404 29.5649 23.3303 30.3445 21.4482C31.1241 19.5661 31.5254 17.5489 31.5254 15.5117H26.6776C25.0712 15.5117 23.8184 16.8579 23.23 18.3526C23.2133 18.3952 23.1961 18.4376 23.1786 18.48C22.7888 19.421 22.2175 20.2761 21.4972 20.9963C20.777 21.7165 19.9219 22.2879 18.9809 22.6777C18.0399 23.0675 17.0313 23.2681 16.0127 23.2681C14.9941 23.2681 13.9855 23.0675 13.0445 22.6777C12.1034 22.2879 11.2484 21.7165 10.5281 20.9963C9.80787 20.2761 9.23655 19.421 8.84676 18.48C8.45696 17.5389 8.25634 16.5303 8.25634 15.5117H0.5Z" fill="url(#paint1_linear_1_7349)"/>
<path d="M0.501587 15.5127C0.501587 6.94524 7.44683 0 16.0142 0C17.3556 0 18.6572 0.170246 19.8987 0.490323C17.2348 1.17657 14.7774 2.56535 12.7991 4.54357C9.88992 7.45273 8.25557 11.3985 8.25557 15.5127H0.501587Z" fill="#F83758"/>
<path d="M49.152 21.5131V20.8561L50.673 20.4601V8.83212L49.152 8.45412V7.80612H55.155C56.055 7.80612 56.802 7.86612 57.396 7.98612C57.996 8.10012 58.497 8.28012 58.899 8.52612C59.361 8.82012 59.718 9.19512 59.97 9.65112C60.228 10.1071 60.357 10.5991 60.357 11.1271C60.357 11.8471 60.069 12.4591 59.493 12.9631C58.917 13.4611 58.101 13.8031 57.045 13.9891V14.0611C57.843 14.1391 58.542 14.3491 59.142 14.6911C59.742 15.0331 60.207 15.4771 60.537 16.0231C60.873 16.5631 61.041 17.1811 61.041 17.8771C61.041 18.4231 60.921 18.9331 60.681 19.4071C60.447 19.8811 60.126 20.2711 59.718 20.5771C59.262 20.9131 58.71 21.1531 58.062 21.2971C57.414 21.4411 56.553 21.5131 55.479 21.5131H49.152ZM55.101 20.5681C55.983 20.5681 56.634 20.3401 57.054 19.8841C57.48 19.4221 57.693 18.7021 57.693 17.7241C57.693 16.6801 57.423 15.9151 56.883 15.4291C56.343 14.9371 55.509 14.6911 54.381 14.6911H53.733V19.5061C53.733 19.9261 53.829 20.2081 54.021 20.3521C54.219 20.4961 54.579 20.5681 55.101 20.5681ZM53.733 13.7281H53.931C54.141 13.7281 54.321 13.7251 54.471 13.7191C54.627 13.7071 54.762 13.6921 54.876 13.6741C55.59 13.6021 56.139 13.3561 56.523 12.9361C56.907 12.5101 57.099 11.9311 57.099 11.1991C57.099 10.7791 57.033 10.4161 56.901 10.1101C56.775 9.80412 56.592 9.55512 56.352 9.36312C56.094 9.15312 55.773 9.00312 55.389 8.91312C55.005 8.81712 54.561 8.76912 54.057 8.76912H53.733V13.7281ZM67.5059 21.7021C66.4199 21.7021 65.4959 21.4801 64.7339 21.0361C63.9779 20.5921 63.4019 19.9981 63.0059 19.2541C62.6159 18.5101 62.4209 17.6911 62.4209 16.7971C62.4209 15.8971 62.6159 15.0781 63.0059 14.3401C63.4019 13.5961 63.9779 13.0021 64.7339 12.5581C65.4959 12.1141 66.4199 11.8921 67.5059 11.8921C68.5919 11.8921 69.5099 12.1141 70.2599 12.5581C71.0159 13.0021 71.5919 13.5961 71.9879 14.3401C72.3839 15.0781 72.5819 15.8971 72.5819 16.7971C72.5819 17.6911 72.3839 18.5101 71.9879 19.2541C71.5919 19.9981 71.0159 20.5921 70.2599 21.0361C69.5099 21.4801 68.5919 21.7021 67.5059 21.7021ZM67.5059 20.7841C67.9379 20.7841 68.2889 20.6581 68.5589 20.4061C68.8349 20.1481 69.0449 19.8151 69.1889 19.4071C69.3389 18.9991 69.4409 18.5671 69.4949 18.1111C69.5549 17.6491 69.5849 17.2111 69.5849 16.7971C69.5849 16.3891 69.5579 15.9541 69.5039 15.4921C69.4499 15.0301 69.3479 14.5981 69.1979 14.1961C69.0539 13.7881 68.8439 13.4581 68.5679 13.2061C68.2979 12.9481 67.9439 12.8191 67.5059 12.8191C67.0679 12.8191 66.7109 12.9481 66.4349 13.2061C66.1589 13.4581 65.9459 13.7881 65.7959 14.1961C65.6519 14.5981 65.5529 15.0301 65.4989 15.4921C65.4449 15.9541 65.4179 16.3891 65.4179 16.7971C65.4179 17.2111 65.4449 17.6491 65.4989 18.1111C65.5529 18.5671 65.6519 18.9991 65.7959 19.4071C65.9459 19.8151 66.1589 20.1481 66.4349 20.4061C66.7109 20.6581 67.0679 20.7841 67.5059 20.7841ZM78.9493 21.7021C77.8633 21.7021 76.9393 21.4801 76.1773 21.0361C75.4213 20.5921 74.8453 19.9981 74.4493 19.2541C74.0593 18.5101 73.8643 17.6911 73.8643 16.7971C73.8643 15.8971 74.0593 15.0781 74.4493 14.3401C74.8453 13.5961 75.4213 13.0021 76.1773 12.5581C76.9393 12.1141 77.8633 11.8921 78.9493 11.8921C80.0353 11.8921 80.9533 12.1141 81.7033 12.5581C82.4593 13.0021 83.0353 13.5961 83.4313 14.3401C83.8273 15.0781 84.0253 15.8971 84.0253 16.7971C84.0253 17.6911 83.8273 18.5101 83.4313 19.2541C83.0353 19.9981 82.4593 20.5921 81.7033 21.0361C80.9533 21.4801 80.0353 21.7021 78.9493 21.7021ZM78.9493 20.7841C79.3813 20.7841 79.7323 20.6581 80.0023 20.4061C80.2783 20.1481 80.4883 19.8151 80.6323 19.4071C80.7823 18.9991 80.8843 18.5671 80.9383 18.1111C80.9983 17.6491 81.0283 17.2111 81.0283 16.7971C81.0283 16.3891 81.0013 15.9541 80.9473 15.4921C80.8933 15.0301 80.7913 14.5981 80.6413 14.1961C80.4973 13.7881 80.2873 13.4581 80.0113 13.2061C79.7413 12.9481 79.3873 12.8191 78.9493 12.8191C78.5113 12.8191 78.1543 12.9481 77.8783 13.2061C77.6023 13.4581 77.3893 13.7881 77.2393 14.1961C77.0953 14.5981 76.9963 15.0301 76.9423 15.4921C76.8883 15.9541 76.8613 16.3891 76.8613 16.7971C76.8613 17.2111 76.8883 17.6491 76.9423 18.1111C76.9963 18.5671 77.0953 18.9991 77.2393 19.4071C77.3893 19.8151 77.6023 20.1481 77.8783 20.4061C78.1543 20.6581 78.5113 20.7841 78.9493 20.7841ZM84.9296 21.5131V20.8831L86.4506 20.5321V8.49012L84.9296 8.01312V7.59912L88.8176 6.72612H89.2046V20.5321L90.7616 20.8831V21.5131H84.9296ZM92.6786 21.5131L90.0956 17.0581L91.7246 14.8531L95.3516 20.5321L96.8186 20.8831V21.5131H92.6786ZM88.6826 18.6511L88.2866 17.7961L92.1206 13.7641C92.2586 13.6081 92.3666 13.4791 92.4446 13.3771C92.5226 13.2751 92.5616 13.1881 92.5616 13.1161C92.5616 13.0141 92.4566 12.9331 92.2466 12.8731C92.0366 12.8131 91.6286 12.7531 91.0226 12.6931V12.0721H95.9276V12.6931C95.4056 12.7711 95.0036 12.8521 94.7216 12.9361C94.4456 13.0141 94.2236 13.1131 94.0556 13.2331C93.8876 13.3531 93.7046 13.5121 93.5066 13.7101L88.6826 18.6511ZM109.132 21.7021L104.299 10.4521H104.227V20.5051L105.793 20.8561V21.5131H101.41V20.8561L102.994 20.5051V8.78712L101.419 8.45412V7.80612H106.828L110.527 16.9861H110.635L114.496 7.80612H119.077V8.45412L117.592 8.80512V20.4781L119.077 20.8561V21.5131H113.011V20.8561L114.523 20.4781V10.9291H114.451L109.978 21.7021H109.132ZM122.708 21.7021C121.982 21.7021 121.409 21.5131 120.989 21.1351C120.569 20.7571 120.359 20.2411 120.359 19.5871C120.359 18.9931 120.545 18.4801 120.917 18.0481C121.289 17.6161 121.859 17.2561 122.627 16.9681C123.401 16.6741 124.385 16.4431 125.579 16.2751V14.9701C125.579 14.1661 125.504 13.6261 125.354 13.3501C125.21 13.0741 124.922 12.9361 124.49 12.9361C124.046 12.9361 123.695 13.0441 123.437 13.2601C123.179 13.4701 123.05 13.7611 123.05 14.1331C123.05 14.2651 123.062 14.4001 123.086 14.5381C123.11 14.6701 123.122 14.7991 123.122 14.9251C123.122 15.2671 123.002 15.5521 122.762 15.7801C122.528 16.0021 122.237 16.1131 121.889 16.1131C121.541 16.1131 121.259 16.0021 121.043 15.7801C120.827 15.5521 120.719 15.2581 120.719 14.8981C120.719 14.5261 120.842 14.1541 121.088 13.7821C121.334 13.4101 121.679 13.0771 122.123 12.7831C123.059 12.1891 124.184 11.8921 125.498 11.8921C126.14 11.8921 126.656 11.9701 127.046 12.1261C127.442 12.2761 127.739 12.4951 127.937 12.7831C128.075 13.0051 128.177 13.2931 128.243 13.6471C128.309 14.0011 128.342 14.5081 128.342 15.1681V18.8401C128.342 19.3681 128.393 19.7521 128.495 19.9921C128.597 20.2261 128.768 20.3431 129.008 20.3431C129.278 20.3431 129.545 20.2021 129.809 19.9201L130.214 20.4961C129.83 20.9041 129.428 21.2071 129.008 21.4051C128.588 21.6031 128.123 21.7021 127.613 21.7021C127.031 21.7021 126.59 21.5851 126.29 21.3511C125.99 21.1171 125.795 20.7631 125.705 20.2891H125.633C125.189 20.7691 124.727 21.1261 124.247 21.3601C123.767 21.5881 123.254 21.7021 122.708 21.7021ZM124.346 20.0101C124.592 20.0101 124.82 19.9681 125.03 19.8841C125.24 19.8001 125.423 19.6741 125.579 19.5061V17.1121C125.003 17.2261 124.55 17.3551 124.22 17.4991C123.896 17.6431 123.668 17.8231 123.536 18.0391C123.404 18.2491 123.338 18.5221 123.338 18.8581C123.338 19.2481 123.419 19.5391 123.581 19.7311C123.743 19.9171 123.998 20.0101 124.346 20.0101ZM130.594 21.5131V20.8831L131.935 20.5321V13.6741L130.576 13.1701V12.7471L134.221 11.8921H134.608V13.5211L134.68 13.6021V20.5321L137.02 20.8831V21.5131H130.594ZM134.482 14.8171L134.509 13.6021C134.983 13.0441 135.451 12.6181 135.913 12.3241C136.381 12.0241 136.834 11.8741 137.272 11.8741C137.716 11.8741 138.085 12.0001 138.379 12.2521C138.673 12.5041 138.82 12.8161 138.82 13.1881C138.82 13.5481 138.712 13.8511 138.496 14.0971C138.286 14.3371 138.025 14.4571 137.713 14.4571C137.401 14.4571 137.107 14.3461 136.831 14.1241C136.657 13.9741 136.501 13.8661 136.363 13.8001C136.231 13.7281 136.09 13.6921 135.94 13.6921C135.73 13.6921 135.478 13.8061 135.184 14.0341C134.896 14.2561 134.662 14.5171 134.482 14.8171ZM143.136 21.7021C142.212 21.7021 141.555 21.5011 141.165 21.0991C140.775 20.6971 140.58 20.0521 140.58 19.1641V12.9631H139.32L139.212 12.4141L142.803 9.67812L143.352 9.76812V12.0721H146.106L145.845 12.9631H143.352V18.9841C143.352 19.9381 143.724 20.4151 144.468 20.4151C144.678 20.4151 144.876 20.3791 145.062 20.3071C145.248 20.2351 145.419 20.1061 145.575 19.9201L145.989 20.4961C145.677 20.8921 145.272 21.1921 144.774 21.3961C144.276 21.6001 143.73 21.7021 143.136 21.7021Z" fill="#4392F9"/>
</g>
<defs>
<linearGradient id="paint0_linear_1_7349" x1="39.2809" y1="7.75634" x2="8.25549" y2="7.75634" gradientUnits="userSpaceOnUse">
<stop stop-color="#CFE2FC"/>
<stop offset="1" stop-color="#4392F9"/>
</linearGradient>
<linearGradient id="paint1_linear_1_7349" x1="0.500001" y1="23.2681" x2="31.5254" y2="23.2681" gradientUnits="userSpaceOnUse">
<stop stop-color="#F8BCC6"/>
<stop offset="1" stop-color="#F83758"/>
</linearGradient>
<clipPath id="clip0_1_7349">
<rect width="145.781" height="31.0263" fill="white" transform="translate(0.5)"/>
</clipPath>
</defs>
</svg>
